<svg viewBox="0 0 89 1738" fill="none" xmlns="http://www.w3.org/2000/svg">
    <g class="zero">
        <rect class="bg" y="1580" width="89" height="158" fill="white" />
        <path
            class="number"
            d="M27.1678 1702.04L35.4078 1693.4H55.1678L62.9278 1702.04H27.1678ZM24.7678 1662.76L33.4078 1671.08V1690.68L24.7678 1698.52V1662.76ZM65.4878 1698.52L56.8478 1690.28V1670.6L65.4878 1662.76V1698.52ZM27.0878 1620.76H62.8478L54.9278 1629.4H35.3278L27.0878 1620.76ZM24.5278 1659.96V1624.2L33.1678 1631.96V1651.8L24.5278 1659.96ZM65.2478 1624.2V1659.96L56.6078 1652.2V1632.44L65.2478 1624.2Z"
            fill="#038591" title="0" />
    </g>
    <g class="one">
        <rect class="bg" y="1422" width="89" height="158" fill="white" />
        <path
            class="number"
            d="M65.4878 1541.51L56.8478 1533.27V1513.59L65.4878 1505.75V1541.51ZM34.0478 1508.63C32.1811 1507.14 30.2878 1505.67 28.3678 1504.23L34.0478 1499.99H55.8878L61.4878 1504.23L55.8878 1508.63H34.0478ZM27.0878 1463.75H62.8478L54.9278 1472.39H35.3278L27.0878 1463.75ZM24.5278 1502.95V1467.19L33.1678 1474.95V1494.79L24.5278 1502.95ZM65.2478 1467.19V1502.95L56.6078 1495.19V1475.43L65.2478 1467.19Z"
            fill="#038591" title="1" />
    </g>
    <g class="two">
        <rect class="bg" y="1264" width="89" height="158" fill="white" />
        <path
            class="number"
            d="M27.1678 1387.03L35.4078 1378.39H55.1678L62.9278 1387.03H27.1678ZM24.7678 1347.75L33.4078 1356.07V1375.67L24.7678 1383.51V1347.75ZM65.4878 1383.51L56.8478 1375.27V1355.59L65.4878 1347.75V1383.51ZM34.0478 1350.63C32.1811 1349.14 30.2878 1347.67 28.3678 1346.23L34.0478 1341.99H55.8878L61.4878 1346.23L55.8878 1350.63H34.0478ZM27.0878 1305.75H62.8478L54.9278 1314.39H35.3278L27.0878 1305.75ZM24.5278 1344.95V1309.19L33.1678 1316.95V1336.79L24.5278 1344.95ZM65.2478 1309.19V1344.95L56.6078 1337.19V1317.43L65.2478 1309.19Z"
            fill="#038591" title="2" />
    </g>
    <g class="three">
        <rect class="bg" y="1106" width="89" height="158" fill="white" />
        <path
            class="number"
            d="M65.8078 1225.5L57.2478 1217.26V1197.58L65.8078 1189.74V1225.5ZM27.4078 1147.74H63.2478L55.4078 1156.38H35.6478L27.4078 1147.74ZM65.5678 1151.18V1186.94L57.0078 1179.18V1159.42L65.5678 1151.18Z"
            fill="#038591" title="3" />
    </g>
    <g class="four">
        <rect class="bg" y="948" width="89" height="158" fill="white" />
        <path
            class="number"
            d="M27.1678 1071.03L35.4078 1062.39H55.1678L62.9278 1071.03H27.1678ZM24.7678 1031.75L33.4078 1040.07V1059.67L24.7678 1067.51V1031.75ZM65.4878 1067.51L56.8478 1059.27V1039.59L65.4878 1031.75V1067.51ZM34.0478 1034.63C32.1811 1033.14 30.2878 1031.67 28.3678 1030.23L34.0478 1025.99H55.8878L61.4878 1030.23L55.8878 1034.63H34.0478ZM27.0878 989.754H62.8478L54.9278 998.394H35.3278L27.0878 989.754ZM24.5278 1028.95V993.194L33.1678 1000.95V1020.79L24.5278 1028.95Z"
            fill="#038591" title="4" />
    </g>
    <g class="five">
        <rect class="bg" y="790" width="89" height="158" fill="white" />
        <path
            class="number"
            d="M27.1678 912.04L35.4078 903.4H55.1678L62.9278 912.04H27.1678ZM65.4878 908.52L56.8478 900.28V880.6L65.4878 872.76V908.52ZM34.0478 875.64C32.1811 874.147 30.2878 872.68 28.3678 871.24L34.0478 867H55.8878L61.4878 871.24L55.8878 875.64H34.0478ZM27.0878 830.76H62.8478L54.9278 839.4H35.3278L27.0878 830.76ZM24.5278 869.96V834.2L33.1678 841.96V861.8L24.5278 869.96Z"
            fill="#038591" title="5" />
    </g>
    <g class="six">
        <rect class="bg" y="632" width="89" height="158" fill="white" />
        <path
            class="number"
            d="M65.4878 750.52L56.8478 742.28V722.6L65.4878 714.76V750.52ZM34.0478 717.64C32.1811 716.147 30.2878 714.68 28.3678 713.24L34.0478 709H55.8878L61.4878 713.24L55.8878 717.64H34.0478ZM24.5278 711.96V676.2L33.1678 683.96V703.8L24.5278 711.96ZM65.2478 676.2V711.96L56.6078 704.2V684.44L65.2478 676.2Z"
            fill="#038591" title="6" />
    </g>
    <g class="seven">
        <rect class="bg" y="474" width="89" height="158" fill="white" />
        <path
            class="number"
            d="M27.4078 596.04L35.4878 587.4H55.3278L63.0878 596.04H27.4078ZM65.5678 592.52L57.0078 584.28V564.6L65.5678 556.76V592.52ZM34.1278 559.64C32.3145 558.147 30.4478 556.68 28.5278 555.24L34.1278 551H55.9678L61.5678 555.24L55.9678 559.64H34.1278ZM27.1678 514.76H63.0078L55.1678 523.4H35.4078L27.1678 514.76ZM65.3278 518.2V553.96L56.7678 546.2V526.44L65.3278 518.2Z"
            fill="#038591" title="7" />
    </g>
    <g class="height">
        <rect class="bg" y="316" width="89" height="158" fill="white" />
        <path
            class="number"
            d="M27.1678 438.04L35.4078 429.4H55.1678L62.9278 438.04H27.1678ZM24.7678 398.76L33.4078 407.08V426.68L24.7678 434.52V398.76ZM34.0478 401.64C32.1811 400.147 30.2878 398.68 28.3678 397.24L34.0478 393H55.8878L61.4878 397.24L55.8878 401.64H34.0478ZM27.0878 356.76H62.8478L54.9278 365.4H35.3278L27.0878 356.76ZM65.2478 360.2V395.96L56.6078 388.2V368.44L65.2478 360.2Z"
            fill="#038591" title="8" />
    </g>
    <g class="nine">
        <rect class="bg" y="158" width="89" height="158" fill="white" />
        <path
            class="number"
            d="M65.4878 276.52L56.8478 268.28V248.6L65.4878 240.76V276.52ZM65.2478 202.2V237.96L56.6078 230.2V210.44L65.2478 202.2Z"
            fill="#038591" title="9" />
    </g>
    <g class="ten">
        <rect class="bg" width="89" height="158" fill="white" />
        <path
            class="number"
            d="M27.1678 122.04L35.4078 113.4H55.1678L62.9278 122.04H27.1678ZM24.7678 82.76L33.4078 91.08V110.68L24.7678 118.52V82.76ZM65.4878 118.52L56.8478 110.28V90.6L65.4878 82.76V118.52ZM27.0878 40.76H62.8478L54.9278 49.4H35.3278L27.0878 40.76ZM24.5278 79.96V44.2L33.1678 51.96V71.8L24.5278 79.96ZM65.2478 44.2V79.96L56.6078 72.2V52.44L65.2478 44.2Z"
            fill="#038591" title="10" />
    </g>
</svg>